<svg width="24" height="24" viewBox="0 0 24 24" fill="none" xmlns="http://www.w3.org/2000/svg">
    <path fill-rule="evenodd" clip-rule="evenodd" d="M3.371 20.88v-6.636l4.439-5.57 4.438 2.219 6.658-5.548V20.88" fill="#50606F"/>
    <path d="M3.371 20.88v-6.636l4.439-5.57 4.438 2.219 6.658-5.548V20.88" stroke="#1A1C1E" stroke-width="1.184" stroke-miterlimit="1.5" stroke-linecap="round" stroke-linejoin="round"/>
    <path fill-rule="evenodd" clip-rule="evenodd" d="M18.906 20.87H3.37v-4.438l4.439-4.438 4.438 2.424 6.658-4.644v11.097" fill="#006397"/>
    <path d="M18.906 20.87H3.37v-4.438l4.439-4.438 4.438 2.424 6.658-4.644v11.097" stroke="#1A1C1E" stroke-width="1.184" stroke-miterlimit="1.5" stroke-linecap="round" stroke-linejoin="round"/>
    <path fill-rule="evenodd" clip-rule="evenodd" d="M3.064 4.145 2 2.015.934 4.145h2.13zM19.871 20.93l2.13 1.065-2.13 1.065v-2.13z" fill="#1A1C1E"/>
    <path d="M1.965 3.726v18.269h18.269" stroke="#1A1C1E" stroke-width="1.184" stroke-miterlimit="1.5" stroke-linecap="round" stroke-linejoin="round"/>
</svg>
