<svg width="24" height="24" viewBox="0 0 24 24" fill="none" xmlns="http://www.w3.org/2000/svg">
    <path d="M4.2 4.275C3.394 4.668 3 5.1 3 5.568v1.294c0 .469.394.9 1.2 1.294.807.394 1.894.712 3.282.937 1.387.225 2.887.338 4.518.338 1.632 0 3.131-.113 4.519-.338 1.388-.225 2.475-.543 3.28-.937C20.607 7.762 21 7.33 21 6.862V5.569c0-.47-.394-.9-1.2-1.294-.806-.394-1.893-.713-3.281-.938C15.13 3.113 13.632 3 12 3c-1.631 0-3.131.113-4.518.338-1.37.243-2.475.543-3.282.937zM3 12.938v1.63c0 .47.394.9 1.2 1.295.807.393 1.894.712 3.282.937 1.387.225 2.887.338 4.518.338 1.632 0 3.131-.113 4.519-.338 1.388-.225 2.475-.544 3.28-.938.807-.393 1.201-.824 1.201-1.293v-1.707c-.937.563-2.194.994-3.806 1.275-1.613.3-3.338.431-5.194.431-1.856 0-3.581-.13-5.194-.43-1.612-.282-2.868-.713-3.806-1.276v.076zm0 3.75v1.743c0 .469.394.9 1.2 1.294.807.394 1.894.712 3.281.937 1.388.225 2.888.338 4.52.338 1.63 0 3.13-.113 4.518-.338 1.387-.225 2.475-.543 3.28-.937.807-.394 1.2-.825 1.2-1.294v-1.706c-.936.562-2.193.993-3.805 1.275A30.154 30.154 0 0 1 12 18.43c-1.856 0-3.581-.15-5.194-.431-1.612-.282-2.869-.713-3.806-1.275v-.038zM3 9v1.706c0 .469.394.9 1.2 1.294.806.393 1.894.712 3.281.937 1.388.225 2.888.338 4.519.338 1.631 0 3.131-.113 4.518-.338 1.388-.225 2.476-.543 3.282-.937s1.2-.825 1.2-1.294V9c-.938.562-2.194.993-3.806 1.275a30.153 30.153 0 0 1-5.194.431c-1.856 0-3.581-.15-5.194-.431C5.194 9.993 3.937 9.562 3 9" fill="#72777E"/>
</svg>
